# xmcd
# Track frame offsets:
# 150
# 10635
# 19640
# 31304
# 42472
# 54194
# 64643
# 76071
# 87467
# 98471
# 110791
# 121097
# 132182
#
# Disc length: 1952 seconds
# Revision: 1
# Processed by: cddbd v1.5.2PL0 Copyright (c) Steve Scherf et al.
# Submitted via: VisiTrax 2.11.3.279 - For more info visit www.synapsa.com
#
DISCID=92079e0d
DTITLE=Patsy Cline - The Best Of Patsy Cline Disc 1
DYEAR=1999
DGENRE=Country
TTITLE0=Crazy (Radio Edit)
TTITLE1=I Fall To Pieces (Radio)
TTITLE2=Never No More
TTITLE3=Hungry For Love
TTITLE4=Walkin' After Midnight
TTITLE5=Lovesick Blues
TTITLE6=Loved and Lost Again
TTITLE7=The Heart You Break May Be Your Own
TTITLE8=I Can't Forget You
TTITLE9=A Poor Man's Roses
TTITLE10=Pick Me Up On Your Way Down
TTITLE11=A Stranger In Your Arms
TTITLE12=Then You'll Know
EXTD=1999 Mastertech Pty Ltd.
EXTT0=
EXTT1=
EXTT2=
EXTT3=
EXTT4=
EXTT5=
EXTT6=
EXTT7=
EXTT8=
EXTT9=
EXTT10=
EXTT11=
EXTT12=
PLAYORDER=
